<?xml version="1.0" encoding="utf-8"?>
<!-- Generator: Adobe Illustrator 22.0.0, SVG Export Plug-In . SVG Version: 6.00 Build 0)  -->
<svg version="1.1" id="Layer_1" xmlns="http://www.w3.org/2000/svg" xmlns:xlink="http://www.w3.org/1999/xlink" x="0px" y="0px"
	 viewBox="0 0 31.5 31.5" style="enable-background:new 0 0 31.5 31.5;" xml:space="preserve">
<style type="text/css">
	.st0{fill:#FFFFFF;}
	.st1{fill:#0B6BA7;}
	.st2{fill:#0B6BA7;}
</style>
<defs>
    <filter id="shadow">
      <feDropShadow dx="0.2" dy="0.6" stdDeviation="0.4"/>
    </filter>
</defs>
<g>
	<circle class="st0" cx="15.8" cy="15.8" r="15.3" style="filter:url(#shadow);"/>
	<path class="st1" d="M15.7,31.5C7.1,31.5,0,24.4,0,15.8C0,7.1,7.1,0,15.7,0c8.7,0,15.8,7.1,15.8,15.8
		C31.5,24.4,24.4,31.5,15.7,31.5z M15.7,1C7.6,1,1,7.6,1,15.8s6.6,14.7,14.8,14.7s14.8-6.6,14.8-14.7S23.9,1,15.7,1z"/>
</g>
<path class="st2" d="M22.7,17.1H9.5c-1,0-1.7-0.8-1.7-1.7v0c0-1,0.8-1.7,1.7-1.7h13.3c1,0,1.7,0.8,1.7,1.7v0
	C24.5,16.3,23.7,17.1,22.7,17.1z"/>
</svg>
