<?xml version="1.0" encoding="utf-8"?>
<!-- Generator: Adobe Illustrator 22.0.0, SVG Export Plug-In . SVG Version: 6.00 Build 0)  -->
<svg version="1.1" id="Capa_1" xmlns="http://www.w3.org/2000/svg" xmlns:xlink="http://www.w3.org/1999/xlink" x="0px" y="0px"
	 viewBox="0 0 469.3 469.3" style="enable-background:new 0 0 469.3 469.3;" xml:space="preserve">
<style type="text/css">
	.st0{fill:#FFFFFF;}
</style>
<polygon class="st0" points="41,284 23,284 23,18 280,18 280,36 41,36 "/>
<polygon class="st0" points="450,445 188,445 188,427 432,427 432,210 450,210 "/>
<path class="st0" d="M78.9,390.7c-10.6-10.6-6.7-32.7,8.1-54.5c-3.7-0.7-7.6-1.1-11.6-1.1c-32.6,0-59.1,26.4-59.1,59.1
	c0,32.6,26.4,59.1,59.1,59.1s59.1-26.4,59.1-59.1c0-4-0.4-7.8-1.1-11.6C111.6,397.4,89.5,401.4,78.9,390.7z"/>
<g>
	<path class="st0" d="M314.5,70.8c-1.5-1.5-3.6-2.4-5.8-2.4h0c-2.2,0-4.3,0.9-5.8,2.4L136,239.4c-0.1,0.1-0.1,0.2-0.2,0.3
		c-0.8,0.9-1.5,2-1.9,3.2l-14.2,49.7l-18.5,64.9c-0.8,2.9,0,5.9,2.1,8c1.6,1.6,3.6,2.4,5.8,2.4c0.8,0,1.5-0.1,2.2-0.3l64.8-18.5
		l49.7-14.2c0.1,0,0.3-0.2,0.4-0.2c0.5-0.2,1-0.5,1.4-0.7c0.5-0.3,0.9-0.5,1.3-0.9c0.1-0.1,0.2-0.1,0.3-0.2l168.4-167
		c1.5-1.5,2.4-3.6,2.4-5.8c0-2.2-0.9-4.3-2.4-5.8L314.5,70.8z M215.5,320.9l-39.1,11.2l-39.5-39.5l11.2-39.2h21.5l6.4,12.8
		c0.5,1.1,1.3,2,2.3,2.8l21,20.6c0.8,1.5,2,2.7,3.6,3.5l12.8,6.4V320.9z"/>
	<path class="st0" d="M451.3,66.4l-49.1-49.1c-12.4-12.4-33.9-12.4-46.3,0l-30,30.3c-3.2,3.2-3.2,8.4,0,11.6l83.5,83.6
		c1.6,1.6,3.7,2.4,5.8,2.4c2.1,0,4.2-0.8,5.8-2.4l30.3-30c6.2-6.2,9.6-14.4,9.6-23.2C460.9,80.8,457.5,72.6,451.3,66.4z"/>
</g>
</svg>
