<?xml version="1.0" encoding="utf-8"?>
<!-- Generator: Adobe Illustrator 25.0.1, SVG Export Plug-In . SVG Version: 6.00 Build 0)  -->
<svg version="1.1" id="Capa_1" xmlns="http://www.w3.org/2000/svg" xmlns:xlink="http://www.w3.org/1999/xlink" x="0px" y="0px"
	 viewBox="0 0 686.7 153.3" style="enable-background:new 0 0 686.7 153.3;" xml:space="preserve">
<style type="text/css">
	.st0{fill:none;stroke:#BFBFBF;stroke-width:4;stroke-miterlimit:10;}
</style>
<g>
	<path class="st0" d="M59.1,123.2l16.9-17c1.8,3.4,5.1,6.3,9.8,8.6c4.4,2.2,8.7,3.3,12.9,3.3c4.6,0,8.4-0.9,11.5-2.6
		c3.9-2.2,5.8-5.4,5.8-9.6c0-4.9-4.6-9.3-13.8-13.2c-14.4-6.1-23-10.1-25.8-12C67.1,74.2,62.5,65.3,62.5,54
		c0-11.1,3.7-20.2,11.1-27.3S90.3,16,101.4,16c7.6,0,14.8,1.5,21.7,4.6c7.6,3.3,13.4,7.9,17.4,13.8l-16,17.2
		c-1.4-3.4-4.6-6.3-9.6-8.6c-4.4-1.8-8.7-2.8-13.1-2.8c-4,0-7.4,1.2-10.1,3.5c-2.8,2.4-4.1,5.5-4.1,9.4c0,4.8,4.5,8.7,13.6,11.7
		c13.4,4.4,22,7.9,25.6,10.7c9.2,6.8,13.8,17.2,13.8,31.3c0,10.6-4,19.3-12.1,26.1s-17.5,10.3-28.1,10.3c-7.8,0-15.5-1.7-23-5.2
		C69.1,134.4,63.1,129.4,59.1,123.2z"/>
	<path class="st0" d="M160.4,19.7l24.1-2.6v122.5l-24.1,2.9V19.7z"/>
	<path class="st0" d="M206.1,141.5V19.9h64.7l4.8,23.2h-43.9v22.5h33.2v24.1h-33.2v27H280l-6.7,24.8H206.1z"/>
	<path class="st0" d="M321.4,80.6v59.3l-23.7,2.9V20l33.4-0.5c12.4-0.2,22.6,2.8,30.6,8.9c8.7,6.7,13.1,16.1,13.1,28.2
		c0,14.9-6.9,25.7-20.8,32.5l32.7,46.8l-24.6,8.3L321.4,80.6z M321.4,73.9l11.1,0.3c4.3,0.1,8.3-1.5,12-4.9
		c3.6-3.4,5.5-7.3,5.5-11.6c0-9.5-5.3-14.1-15.9-13.8h-12.7V73.9z"/>
	<path class="st0" d="M427,80.6v59.3l-23.7,2.9V20l33.4-0.5c12.4-0.2,22.6,2.8,30.6,8.9c8.7,6.7,13.1,16.1,13.1,28.2
		c0,14.9-6.9,25.7-20.8,32.5l32.7,46.8l-24.6,8.3L427,80.6z M427,73.9l11.1,0.3c4.3,0.1,8.3-1.5,12-4.9c3.6-3.4,5.5-7.3,5.5-11.6
		c0-9.5-5.3-14.1-15.9-13.8H427V73.9z"/>
	<path class="st0" d="M596.8,113.1h-46.9l-14.1,31.3l-28.2-5.2l65.7-128.1l64.8,128.1l-26.1,5.9L596.8,113.1z M560.6,89h25.5
		l-12.6-33.5L560.6,89z"/>
</g>
</svg>
